<?xml version="1.0" standalone="no"?><!DOCTYPE svg PUBLIC "-//W3C//DTD SVG 1.1//EN" "http://www.w3.org/Graphics/SVG/1.1/DTD/svg11.dtd"><svg class="icon" height="512" viewBox="0 0 1024 1024" version="1.1" xmlns="http://www.w3.org/2000/svg"><path d="M512 911.735836c220.149661 0 399.431761-179.2821 399.431761-399.431762 0-7.05452 0-14.109039-0.729777-21.041929-0.729778-13.379261-12.649483-23.961041-26.028745-23.231262-13.379261 0.729778-23.961041 11.919705-23.231263 26.028744 0 6.324742 0.729778 11.919705 0.729778 18.244447 0 193.391139-156.780615 350.171754-350.171754 350.171754S161.828246 705.695213 161.828246 512.425704c0-193.391139 156.780615-350.171754 350.171754-350.171755 51.327711 0 100.587718 10.581779 146.928614 32.353487 4.865186 2.067704 10.581779 4.865186 15.446965 7.784297 11.919705 6.324742 26.758522 1.459556 33.083264-10.581779 6.324742-11.919705 1.459556-26.758522-10.581779-33.083264-5.594964-2.797482-11.919705-6.324742-18.244447-9.122224-52.787267-24.569189-108.980164-36.610524-167.362395-36.610524C291.850339 112.993942 112.568239 292.276042 112.568239 512.425704c0 220.028032 179.2821 399.310132 399.431761 399.310132z" fill="" /><path d="M869.834422 397.120798z m-26.636893 0c0 9.487112 5.108445 18.366077 13.379262 23.109633 8.270816 4.743556 18.487706 4.743556 26.758522 0s13.379261-13.62252 13.379261-23.109633c0-9.487112-5.108445-18.366077-13.379261-23.109633-8.270816-4.743556-18.487706-4.743556-26.758522 0-8.270816 4.621927-13.379261 13.500891-13.379262 23.109633M829.818268 310.520489z m-26.758522 0c0 9.487112 5.108445 18.366077 13.379261 23.109633 8.270816 4.743556 18.487706 4.743556 26.758522 0 8.270816-4.743556 13.379261-13.62252 13.379262-23.109633 0-9.487112-5.108445-18.366077-13.379262-23.109633-8.270816-4.743556-18.487706-4.743556-26.758522 0-8.270816 4.743556-13.379261 13.62252-13.379261 23.109633M765.841074 236.691294z m-26.758523 0c0 9.487112 5.108445 18.366077 13.379262 23.109632 8.270816 4.743556 18.487706 4.743556 26.758522 0 8.270816-4.743556 13.379261-13.62252 13.379261-23.109632 0-9.487112-5.108445-18.366077-13.379261-23.109633-8.270816-4.743556-18.487706-4.743556-26.758522 0-8.270816 4.743556-13.379261 13.62252-13.379262 23.109633" fill="" /><path d="M537.177337 344.69842v353.942274c0 8.149186-1.581185 14.230669-4.865186 18.244447-3.284 4.013778-9.487112 6.081482-18.852595 6.081482s-15.568595-2.189334-18.852596-6.324742c-3.284-4.257038-4.865186-10.21689-4.865185-18.001187v-353.942274h-97.911866c-7.297779 0-13.136002-1.581185-17.27141-4.865186-4.257038-3.284-6.324742-8.878964-6.324742-17.02815 0-7.662668 2.189334-13.257632 6.689631-16.784892 4.500297-3.40563 10.095261-5.108445 17.02815-5.108445h243.259295c6.93289 0 12.527854 1.946074 17.02815 5.838223 4.500297 3.892149 6.689631 9.487112 6.689631 16.784892 0 8.149186-2.554223 13.62252-7.541038 16.784891-5.108445 3.040741-10.46015 4.621927-16.055114 4.621927h-98.155125z" fill="" /></svg>